<svg width="823" height="708" viewBox="0 0 823 708" fill="none" xmlns="http://www.w3.org/2000/svg">
<path d="M772 603C775.96 603 779.92 603 784 603C784.33 612.9 784.66 622.8 785 633C786.65 631.35 788.3 629.7 790 628C794.945 624.741 799.248 624.288 805 625C810.559 626.285 814.473 628.395 818 633C823.75 642.263 822.444 653.176 822.25 663.625C822.23 665.506 822.212 667.388 822.195 669.27C822.152 673.847 822.083 678.423 822 683C817.71 683 813.42 683 809 683C808.991 681.845 808.981 680.69 808.972 679.499C808.932 675.203 808.866 670.908 808.792 666.612C808.764 664.755 808.743 662.897 808.729 661.04C808.708 658.366 808.661 655.693 808.609 653.02C808.608 652.192 808.607 651.365 808.606 650.513C808.477 645.434 807.837 642.675 804 639C800.298 637.149 796.041 637.535 792 638C788.37 640.118 786.476 642.107 785 646C784.764 648.784 784.628 651.479 784.586 654.266C784.567 655.059 784.547 655.852 784.527 656.67C784.468 659.196 784.421 661.723 784.375 664.25C784.337 665.966 784.298 667.682 784.258 669.398C784.162 673.599 784.078 677.799 784 682C780.04 682 776.08 682 772 682C772 655.93 772 629.86 772 603Z" fill="#C0EA88"/>
<path d="M454.25 626.965C459.843 630.273 462.372 635.954 464 642C464.369 645.261 464.352 648.472 464.293 651.75C464.289 652.649 464.284 653.547 464.28 654.473C464.263 657.316 464.226 660.158 464.188 663C464.172 664.939 464.159 666.878 464.146 668.816C464.114 673.545 464.062 678.272 464 683C459.71 683 455.42 683 451 683C450.986 681.32 450.986 681.32 450.972 679.607C450.932 675.436 450.866 671.265 450.792 667.094C450.764 665.292 450.743 663.49 450.729 661.688C450.707 659.091 450.661 656.495 450.609 653.898C450.608 653.098 450.607 652.298 450.606 651.473C450.469 646.223 449.472 643.17 446 639C442.545 637.273 438.784 637.646 435 638C431.528 639.359 430.349 640.433 428.399 643.602C426.772 647.554 426.525 651.036 426.488 655.242C426.47 656.011 426.452 656.779 426.434 657.571C426.38 660.005 426.346 662.44 426.312 664.875C426.279 666.534 426.245 668.193 426.209 669.852C426.124 673.901 426.057 677.95 426 682C422.04 682 418.08 682 414 682C414 663.85 414 645.7 414 627C417.63 627 421.26 627 425 627C425 629.64 425 632.28 425 635C425.66 635 426.32 635 427 635C427.206 634.257 427.412 633.515 427.625 632.75C432.419 623.162 445.561 623.198 454.25 626.965Z" fill="#C0EA88"/>
<path d="M314.688 625.687C315.465 625.658 316.243 625.629 317.045 625.6C323.47 625.53 328.674 627.073 333.565 631.377C336.676 634.772 337.411 637.547 338 642C335.898 642.135 333.793 642.232 331.688 642.312C330.516 642.37 329.344 642.429 328.137 642.488C325 642 325 642 323.188 639.531C322.796 638.696 322.404 637.861 322 637C318.44 635.286 313.883 635.539 310 636C307.075 637.351 307.075 637.351 305 639C305.33 641.31 305.66 643.62 306 646C311.874 647.811 317.689 648.841 323.771 649.68C329.622 650.606 333.589 652.584 337.848 656.852C340.313 661.447 339.559 666.959 339 672C336.276 677.972 331.953 680.769 326 683.25C317.516 685.319 308.066 685.042 300.129 681.328C296.044 678.78 292.786 675.711 291.418 670.992C291.125 669.062 291.125 669.062 291 666C292.936 665.865 294.874 665.768 296.812 665.687C297.891 665.629 298.97 665.571 300.082 665.512C301.045 665.673 302.008 665.834 303 666C304.637 668.395 304.637 668.395 306 671C310.441 674.108 315.819 673.468 321 673C324.243 672.278 324.243 672.278 326 670C326.408 667.203 326.234 664.854 326 662C320.082 659.411 314.182 658.181 307.812 657.266C301.822 656.297 296.898 653.718 293 649C291.269 643.806 291.179 639.676 293.562 634.812C299.736 627.689 305.348 625.801 314.688 625.687Z" fill="#C0EA88"/>
<path d="M127 604C127 607.63 127 611.26 127 615C124.461 614.902 121.922 614.805 119.383 614.707C118.596 614.804 117.81 614.9 117 615C114.976 618.035 114.679 619.194 114.375 622.687C114.251 624.111 114.127 625.534 114 627C117.96 627 121.92 627 126 627C126 629.97 126 632.94 126 636C122.04 636 118.08 636 114 636C114 651.18 114 666.36 114 682C110.04 682 106.08 682 102 682C102 667.15 102 652.3 102 637C98.7 637 95.4 637 92 637C92 633.7 92 630.4 92 627C95.3 627 98.6 627 102 627C101.954 626.143 101.907 625.286 101.859 624.402C101.478 612.314 101.478 612.314 106 607C111.553 602.636 120.472 600.736 127 604Z" fill="#C0EA88"/>
<path d="M352 611C355.96 611 359.92 611 364 611C364 616.28 364 621.56 364 627C368.62 627 373.24 627 378 627C378 630.3 378 633.6 378 637C373.38 637 368.76 637 364 637C364.097 641.36 364.2 645.72 364.317 650.08C364.356 651.563 364.391 653.046 364.422 654.529C364.468 656.662 364.526 658.794 364.586 660.926C364.633 662.85 364.633 662.85 364.681 664.814C364.764 668.154 364.764 668.154 367 671C369.437 671.364 369.437 671.364 372.125 671.188C374.538 671.095 374.538 671.095 377 671C377.495 676.445 377.495 676.445 378 682C372.322 684.271 368.032 684.726 362 684C357.618 681.809 354.095 679.128 352.432 674.378C351.802 670.91 351.878 667.464 351.902 663.953C351.904 663.182 351.905 662.411 351.907 661.616C351.912 659.161 351.925 656.705 351.938 654.25C351.943 652.582 351.947 650.914 351.951 649.246C351.962 645.164 351.979 641.082 352 637C349.36 637 346.72 637 344 637C344 633.7 344 630.4 344 627C346.64 627 349.28 627 352 627C352 621.72 352 616.44 352 611Z" fill="#C0EA88"/>
<path d="M736 611C739.96 611 743.92 611 748 611C748 616.28 748 621.56 748 627C752.29 627 756.58 627 761 627C761 630.3 761 633.6 761 637C756.71 637 752.42 637 748 637C748.093 641.521 748.2 646.042 748.317 650.562C748.356 652.1 748.391 653.639 748.422 655.177C748.467 657.387 748.525 659.596 748.586 661.805C748.597 662.494 748.609 663.184 748.621 663.895C748.65 667.892 748.65 667.892 751 671C753.336 671.377 755.643 671.505 758.004 671.656C758.663 671.77 759.321 671.883 760 672C761.203 674.405 761.101 675.95 761.062 678.625C761.053 679.442 761.044 680.26 761.035 681.102C761.024 681.728 761.012 682.355 761 683C754.854 684.775 748.388 685.129 742.562 682.375C738.624 678.725 735.823 675.414 735.546 669.922C735.547 668.388 735.569 666.854 735.609 665.32C735.615 664.508 735.621 663.695 735.627 662.857C735.649 660.279 735.699 657.703 735.75 655.125C735.77 653.37 735.788 651.615 735.805 649.859C735.849 645.572 735.918 641.286 736 637C733.03 637 730.06 637 727 637C727 633.7 727 630.4 727 627C729.97 627 732.94 627 736 627C736 621.72 736 616.44 736 611Z" fill="#C0EA88"/>
<path d="M25.125 625.938C26.7337 625.958 28.3425 625.979 30 626C30 630.29 30 634.58 30 639C27.6797 638.876 27.6797 638.876 25.3125 638.75C21.5423 638.739 20.2445 638.85 16.9375 640.875C13.3732 644.784 13.7866 648.449 13.6836 653.508C13.6628 654.348 13.642 655.189 13.6206 656.055C13.5551 658.745 13.4962 661.435 13.4375 664.125C13.3943 665.947 13.3507 667.768 13.3066 669.59C13.1995 674.06 13.0982 678.53 13 683C8.71 683 4.42 683 0 683C0 664.52 0 646.04 0 627C3.96 627 7.92 627 12 627C12.33 628.98 12.66 630.96 13 633C13.7837 632.031 14.5675 631.061 15.375 630.063C18.4321 626.281 20.2799 625.875 25.125 625.938Z" fill="#C0EA88"/>
<path d="M225 626C225 629.96 225 633.92 225 638C222.68 638.093 222.68 638.093 220.312 638.187C216.327 638.571 215.189 638.849 211.938 641.437C208.704 645.715 208.793 649.08 208.684 654.289C208.663 655.107 208.642 655.926 208.621 656.769C208.555 659.388 208.496 662.006 208.438 664.625C208.394 666.398 208.351 668.172 208.307 669.945C208.199 674.297 208.098 678.648 208 683C203.71 683 199.42 683 195 683C195 664.52 195 646.04 195 627C198.96 627 202.92 627 207 627C207 629.64 207 632.28 207 635C207.66 635 208.32 635 209 635C209.041 634.443 209.082 633.886 209.125 633.312C212.024 625.651 217.884 625.461 225 626Z" fill="#C0EA88"/>
<path d="M721 626C721 629.96 721 633.92 721 638C719.597 638.124 718.195 638.247 716.75 638.375C713.39 638.671 710.786 639.031 708 641C705.092 645.709 704.535 649.826 704.488 655.242C704.47 656.011 704.452 656.779 704.434 657.571C704.38 660.005 704.346 662.44 704.312 664.875C704.279 666.534 704.245 668.193 704.209 669.852C704.124 673.901 704.057 677.95 704 682C700.04 682 696.08 682 692 682C692 663.85 692 645.7 692 627C695.96 627 699.92 627 704 627C704.33 628.98 704.66 630.96 705 633C705.784 632.031 706.567 631.061 707.375 630.062C711.389 625.098 714.866 625.912 721 626Z" fill="#C0EA88"/>
<path d="M388 627C391.96 627 395.92 627 400 627C400 645.15 400 663.3 400 682C396.04 682 392.08 682 388 682C388 663.85 388 645.7 388 627Z" fill="#C0EA88"/>
<path d="M543 666C547.95 666 552.9 666 558 666C558 671.28 558 676.56 558 682C553.05 682 548.1 682 543 682C543 676.72 543 671.44 543 666Z" fill="#C0EA88"/>
<path d="M388 604C391.96 604 395.92 604 400 604C400 608.29 400 612.58 400 617C396.04 616.67 392.08 616.34 388 616C388 612.04 388 608.08 388 604Z" fill="#C0EA88"/>
<path d="M13 642C14.3029 645.909 14.0135 649.543 13.8789 653.605C13.8553 654.445 13.8317 655.284 13.8074 656.149C13.7308 658.828 13.6467 661.508 13.5625 664.188C13.5093 666.005 13.4565 667.822 13.4043 669.639C13.2752 674.093 13.1394 678.546 13 683C8.71 683 4.42 683 0 683C0 682.34 0 681.68 0 681C3.63 681 7.26 681 11 681C10.9895 679.996 10.9791 678.992 10.9683 677.958C10.932 674.222 10.9091 670.485 10.8901 666.748C10.8801 665.133 10.8665 663.518 10.8491 661.904C10.8248 659.578 10.8135 657.252 10.8047 654.926C10.7944 654.208 10.784 653.49 10.7734 652.75C10.7725 648.715 11.2104 645.632 13 642Z" fill="#C0EA88"/>
<path d="M474 687C478.384 686.658 482.627 686.463 487 687C489.625 689.813 489.625 689.813 491 693C492.624 694.794 492.624 694.794 494 696C489.319 694.482 489.319 694.482 487.656 691.969C486.142 689.777 486.142 689.777 483.52 689.391C482.18 689.321 482.18 689.321 480.812 689.25C479.911 689.193 479.01 689.137 478.082 689.078C477.395 689.052 476.708 689.027 476 689C476.66 691.31 477.32 693.62 478 696C474.708 693.424 474.56 691.013 474 687Z" fill="#C0EA88"/>
<path d="M22 626C24.64 626 27.28 626 30 626C30 630.29 30 634.58 30 639C25.71 639 21.42 639 17 639C20.0062 635.994 22.8238 636.404 27 636C27.33 633.03 27.66 630.06 28 627C26.02 627 24.04 627 22 627C22 626.67 22 626.34 22 626Z" fill="#C0EA88"/>
<path d="M400 101C400.701 101.722 401.402 102.444 402.125 103.188C404.928 105.998 407.923 108.495 411 111C413.64 108.36 416.28 105.72 419 103C419.33 103.66 419.66 104.32 420 105C417.69 107.64 415.38 110.28 413 113C407.678 111.936 406.997 111.458 403.688 107.562C402.99 106.759 402.293 105.956 401.574 105.129C400 103 400 103 400 101Z" fill="#C0EA88"/>
<path d="M92 627C95.3 627 98.6 627 102 627C102 627.33 102 627.66 102 628C99.36 628 96.72 628 94 628C94 630.31 94 632.62 94 635C96.64 635 99.28 635 102 635C102.33 635.66 102.66 636.32 103 637C99.37 637 95.74 637 92 637C92 633.7 92 630.4 92 627Z" fill="#C0EA88"/>
<path d="M122 604C123.65 604 125.3 604 127 604C127 607.63 127 611.26 127 615C123.7 614.67 120.4 614.34 117 614C117 613.67 117 613.34 117 613C119.31 613 121.62 613 124 613C123.979 612.051 123.959 611.103 123.938 610.125C124 607 124 607 125 605C124.01 604.67 123.02 604.34 122 604Z" fill="#C0EA88"/>
<path d="M488 114C488.66 114.33 489.32 114.66 490 115C485.788 119.798 481.587 124.556 477 129C476.34 128.67 475.68 128.34 475 128C479.167 123.143 483.418 118.47 488 114Z" fill="#C0EA88"/>
<path d="M473 646C475.562 651.125 476.107 654.318 476 660C475.01 660.33 474.02 660.66 473 661C473 656.05 473 651.1 473 646Z" fill="#C0EA88"/>
<path d="M560 477C560 481.138 558.285 482.209 555.5 485.188C554.665 486.089 553.829 486.99 552.969 487.918C552.319 488.605 551.669 489.292 551 490C550.34 489.67 549.68 489.34 549 489C552.63 485.04 556.26 481.08 560 477Z" fill="#C0EA88"/>
<path d="M639 652C639.99 652.33 640.98 652.66 642 653C641.113 653.557 640.226 654.114 639.312 654.688C636.157 656.779 633.601 659.246 631 662C631.473 657.745 633.925 655.775 637 653C637.66 652.67 638.32 652.34 639 652Z" fill="#C0EA88"/>
<path d="M438 625C441.3 625 444.6 625 448 625C448.33 625.99 448.66 626.98 449 628C445.7 628 442.4 628 439 628C438.67 627.01 438.34 626.02 438 625Z" fill="#C0EA88"/>
<path d="M521 453C521.66 453.33 522.32 453.66 523 454C521.881 455.173 520.755 456.338 519.625 457.5C518.999 458.15 518.372 458.799 517.727 459.469C516 461 516 461 514 461C514.33 460.01 514.66 459.02 515 458C515.66 458 516.32 458 517 458C517 457.34 517 456.68 517 456C517.66 456 518.32 456 519 456C519 455.34 519 454.68 519 454C519.66 453.67 520.32 453.34 521 453Z" fill="#C0EA88"/>
<path d="M603 396C603.33 396 603.66 396 604 396C604 398.31 604 400.62 604 403C603.34 403 602.68 403 602 403C601.67 403.99 601.34 404.98 601 406C601.875 398.25 601.875 398.25 603 396Z" fill="#C0EA88"/>
<path d="M139.809 630.696C149.045 623.551 161.581 622.396 172.001 628C178.333 632.365 183.423 637.3 185.001 645C186.141 655.626 186.126 666.162 179.493 675.012C174.523 680.525 169.012 683.549 161.629 684.379C152.31 684.69 146.426 682.894 138.751 677.875C131.214 669.996 129.611 661.14 129.731 650.61C130.357 642.223 133.62 636.326 139.809 630.696ZM165.313 638.063C159.205 636.104 153.89 636 148.563 639.688C144.776 643.105 143.191 646.362 142.602 651.438L142.626 655C142.602 658.562 142.602 658.563 143.001 662C145.129 667.105 146.88 669.665 152.001 672C156.773 672.569 161.781 673.208 166.118 670.848C170.354 666.69 172.483 663.191 172.557 657.138C172.538 656.433 172.519 655.747 172.501 655.063C172.454 652.333 172.275 649.728 172.001 647C170.827 642.793 168.883 640.637 165.313 638.063Z" fill="#C0EA88"/>
<path d="M484.156 628.527C491.374 624.427 498.955 623.215 506.875 626.187C510.163 628.095 512.477 630.171 515 633L516 627H528C528.068 634.65 528.123 642.301 528.155 649.951C528.171 653.505 528.192 657.058 528.226 660.611C528.266 664.707 528.28 668.803 528.293 672.898C528.308 674.159 528.324 675.421 528.34 676.72C528.341 684.678 528.107 692.763 523.238 699.402C513.684 707.019 505.012 708.095 493 707C486.114 705.229 480.427 701.264 476.187 695.562C474.862 692.702 474.465 690.105 474 687C478.384 686.658 482.628 686.457 487 687C489.562 689.875 489.563 689.875 491 693C495.538 696.042 500.763 695.471 506 695C510.294 693.697 511.534 692.761 513.875 688.937C515.538 684.406 515.258 679.756 515 675L512.375 677.375C507.025 681.757 501.672 682.518 494.883 682.379C488.559 681.548 483.724 678.612 479.125 674.312C473.24 665.139 471.838 656.9 473 646C474.75 638.878 477.983 632.744 484.156 628.527ZM507 637.001C501.812 636.15 497.048 635.984 492.277 638.353C489.027 640.706 487.213 643.228 486 647.001C485.393 653.439 485.035 660.017 488.687 665.563C492.313 669.385 495.359 670.888 500.625 671.251C506.164 670.841 508.911 669.985 513 666.001C516.406 660.246 516.75 654.606 516 648.001C514.344 642.818 511.867 639.518 507 637.001Z" fill="#C0EA88"/>
<path d="M642 628C652.555 622.578 664.549 623.938 674.375 630.125C679.945 636.225 680.441 643.672 680.293 651.629C680.288 652.504 680.284 653.38 680.28 654.281C680.263 657.042 680.226 659.802 680.187 662.562C680.172 664.448 680.159 666.335 680.146 668.221C680.113 672.814 680.062 677.407 680 682H668V676L665.5 678.312C659.493 683.241 653.391 684.587 645.683 684.351C640.123 683.623 636.346 681.449 632.562 677.375C629.131 672.158 629.439 667.125 630 661C632.447 655.519 635.775 653.519 641 651C645.893 649.391 651.175 649.619 656.273 649.379C659.811 649.019 662.691 648.265 666 647C666.448 643.145 666.272 641.418 664.125 638.125C659.74 635.144 656.154 635.228 651 636C647.98 636.992 647.98 636.992 646 639L644 644H631C632.862 636.437 635.4 632.265 642 628ZM667.001 656C664.68 656 662.397 657.056 660.005 657.281C656.666 657.493 653.333 657.7 650.001 658C646.181 658.716 644.395 659.836 642.001 663C641.256 666.892 641.689 668.487 643.751 671.875C647 674 647.001 674 649.864 674.379C656.188 674.495 660.367 674.268 665.251 670.062C667.625 665.908 667.625 665.906 667.001 656Z" fill="#C0EA88"/>
<path d="M231.937 640.438C240.271 626.549 256.764 621.341 271.687 627.938C278.307 631.896 281.222 638.055 284 645V658H242C244.765 666.417 244.765 666.417 250 672C255.276 673.759 260.218 673.648 265.437 671.75C268.384 670.043 268.384 670.043 270 666H283C281.693 672.535 278.499 676.406 273.156 680.368C266.374 684.443 258.73 684.961 251 684C241.619 680.832 235.858 676.146 231.125 667.625C228.484 659.481 228.408 648.316 231.937 640.438ZM262 635C257.204 634.419 253.359 634.377 249.308 637.164L247.437 638.625C244.126 641.117 244.126 641.118 243 649H271V644C269.012 639.473 266.401 637.201 262 635Z" fill="#C0EA88"/>
<path d="M584.258 626.872C591.009 624.727 600.833 624.917 607.563 627.063C615.169 631.35 619.345 636.716 622 645V658H580C582.837 668.216 582.838 668.216 586.688 671.688C591.877 673.744 596.43 673.629 601.813 672.313C604.204 671.09 604.205 671.089 605.715 668.438C608 666.001 608.001 666 611.235 665.512L614.75 665.688L618.297 665.825L621 666C620.077 672.332 617.315 675.252 612.414 679.266C605.182 684.462 597.779 684.959 589 684C581.337 681.954 574.705 677.204 570.625 670.375C566.61 662.035 566.441 651.267 569.059 642.426C572.538 634.913 576.93 630.536 584.258 626.872ZM600.969 635.723C596.912 634.234 592.946 634.389 588.813 635.688C583.199 639.753 581.997 642.011 580 649H609V644C607.301 639.902 604.904 637.783 600.969 635.723Z" fill="#C0EA88"/>
<path d="M50.3748 626.629C59.3851 624.47 69.9155 624.506 77.9841 629.391C84.2092 634.361 87.1438 640.37 88.9998 648V658H45.9998C49.5291 667.906 49.5296 667.907 56.9998 673C62.6585 673.588 67.1762 673.294 71.9998 670L73.9998 666H86.9998C85.9367 671.315 84.815 674.228 80.9998 678C72.8214 683.087 65.5885 684.851 55.9998 684C47.4104 681.716 41.5456 677.749 37.0701 670.051C33.065 662.376 32.5717 652.746 34.6521 644.375C37.5788 637.14 43.0698 629.81 50.3748 626.629ZM68.2498 636.187C62.1247 633.949 56.3059 633.99 51.2966 638.551L49.7498 640.312C47.6033 642.677 47.1344 643.196 47.031 646.001L46.9998 646V649H74.9998V643C73.0986 639.856 71.3139 638.207 68.2498 636.187Z" fill="#C0EA88"/>
<path d="M387.544 18.6411C404.827 -0.850376 404.829 -0.851684 414 0.998474C417.418 2.8759 420.148 5.3578 423 7.99847L425.699 10.4555C441.286 25.3027 452.536 44.5935 453.401 66.4545C453.784 90.612 443.668 110.216 427.489 127.697C425.786 129.186 424.03 130.021 422 130.998C422.061 157.615 422.138 184.234 422.236 210.851C422.28 223.21 422.32 235.571 422.346 247.93C422.369 258.707 422.403 269.485 422.448 280.261C422.472 285.963 422.491 291.667 422.497 297.369C422.503 302.744 422.523 308.121 422.554 313.497C422.563 315.461 422.566 317.427 422.565 319.391C422.548 347.019 430.538 370.803 450 390.998C463.338 403.859 479.402 408.812 497 412.998C497.294 412.399 497.589 411.799 497.892 411.182C499.373 408.266 501.078 405.497 502.75 402.686C508.95 392.006 512.883 380.923 516 368.998C515.286 369.019 514.571 369.04 513.835 369.062C493.869 369.57 477.259 369.172 461.242 355.674C450.995 345.931 443.687 333.046 442.865 318.647C442.859 317.425 442.859 317.423 442.853 316.175C442.846 315.232 442.839 314.288 442.831 313.317C442.829 312.294 442.825 311.271 442.823 310.217C442.816 309.131 442.81 308.043 442.803 306.923C442.783 303.33 442.772 299.736 442.762 296.143C442.758 294.914 442.753 293.684 442.749 292.417C442.731 286.58 442.716 280.74 442.707 274.903C442.698 268.855 442.679 262.805 442.643 256.757C442.604 250.255 442.586 243.752 442.581 237.249C442.576 234.777 442.565 232.303 442.546 229.831C442.522 226.363 442.523 222.896 442.53 219.428C442.51 217.91 442.511 217.908 442.491 216.359C442.557 207.286 445.051 199.641 450.938 192.623L452.903 190.225C454.999 187.999 455.001 187.998 457.719 186.42C461.459 182.449 460.608 177.869 460.563 172.623C460.929 152.683 467.038 134.808 481.352 120.541L484 117.998L486.024 115.987C502.585 100.439 525.618 93.8232 547.938 93.4985C548.676 93.48 549.415 93.4618 550.176 93.4428C555.051 93.5 557.59 94.5304 561 97.9985C563.195 102.388 562.186 108.338 562.185 113.217C562.187 115.396 562.206 117.576 562.225 119.754C562.314 141.263 556.437 159.69 541.496 175.588C524.026 192.457 502.578 198.294 478.778 198.53C474.439 199.262 472.063 201.6 469.453 205.034L468.25 207.061L467.016 209.096C464.843 213.167 464.831 216.917 464.794 221.408C464.784 222.159 464.775 222.911 464.765 223.685C464.733 226.168 464.709 228.652 464.684 231.135C464.663 232.857 464.642 234.581 464.62 236.302C464.565 240.834 464.516 245.367 464.468 249.899C464.418 254.523 464.362 259.149 464.307 263.774C464.199 272.848 464.098 281.924 464 290.998L469.884 285.896C472.489 283.56 474.934 281.096 477.36 278.577C478.999 276.999 479.001 276.998 481.203 275.674C483.304 274.089 483.304 274.088 483.25 271.213L483 267.936C482.758 259.866 484.749 254.441 489.125 247.748C497.057 240.162 504.619 237.621 515.418 237.721C520.341 238.102 523.861 239.366 528 241.998L529.891 243.178C536.207 247.819 540.132 255.191 541.512 262.834C541.888 271.885 539.047 279.92 533.375 286.936C527.035 293.44 520.705 295.191 511.75 295.436C507.714 295.431 505.433 295.224 501.828 293.346L499 291.998C496.078 293.091 494.026 294.701 491.785 296.834C491.188 297.398 490.589 297.963 489.973 298.543C489.343 299.147 488.712 299.751 488.063 300.373C484.141 304.118 480.232 307.843 476.09 311.346C475.485 311.868 474.879 312.391 474.255 312.929C473.11 313.912 471.949 314.88 470.774 315.827C468.981 317.305 468.981 317.306 467 319.998C467.032 327.395 470.696 332.168 475.188 337.686C483.406 344.443 490.916 345.726 501.357 345.611C502.657 345.616 503.957 345.622 505.297 345.627C508.105 345.639 510.913 345.636 513.721 345.621C518.163 345.596 522.605 345.608 527.047 345.624C534.869 345.649 542.691 345.644 550.513 345.631C562.304 345.613 574.095 345.617 585.886 345.651C590.3 345.662 594.714 345.658 599.128 345.641C601.211 345.635 603.294 345.635 605.376 345.639C607.913 345.643 610.449 345.637 612.986 345.618C614.105 345.623 615.225 345.629 616.379 345.634C617.835 345.631 617.835 345.631 619.32 345.628C623.654 346.228 627.296 348.56 630 351.998C630.369 354.95 630.523 357.606 630.5 360.561C630.495 361.435 630.49 362.31 630.485 363.21C629.064 419.318 598.638 471.057 559.727 509.42C545.921 522.475 529.865 533.309 513 541.998C511.81 542.613 511.808 542.614 510.594 543.241C494.383 551.507 477.85 557.472 460.188 561.811C459.402 562.006 458.615 562.202 457.805 562.403C443.441 565.734 429.123 566.336 414.492 566.373H408.487C392.962 566.341 378.166 565.575 363 561.998C362.173 561.817 361.344 561.635 360.491 561.448C341.732 557.288 323.881 550.109 307 540.998L303.5 539.139C277.159 524.651 253.013 503.958 235.236 479.683C233.995 477.992 232.73 476.321 231.461 474.651C207.857 443.112 186.465 394.129 191 353.998C193.04 349.847 194.724 347.676 199 345.998C201.544 345.745 201.545 345.746 204.47 345.741C205.581 345.734 206.693 345.727 207.838 345.72C209.053 345.723 210.269 345.725 211.521 345.728C213.49 345.72 215.46 345.712 217.43 345.704C219.546 345.697 221.662 345.694 223.779 345.694C228.196 345.692 232.614 345.674 237.031 345.653C248.008 345.604 258.985 345.573 269.961 345.552C278.486 345.536 287.01 345.513 295.534 345.469C299.919 345.447 304.304 345.439 308.689 345.441C312.07 345.439 315.451 345.418 318.832 345.4C320.64 345.407 320.641 345.407 322.485 345.414C333.56 345.319 340.665 343.244 348.762 335.549C354.982 328.46 357.146 320.915 357.177 311.675C357.187 310.403 357.186 310.401 357.197 309.102C357.216 306.291 357.229 303.478 357.239 300.666C357.243 299.706 357.246 298.745 357.25 297.756C357.271 292.673 357.286 287.588 357.295 282.504C357.306 277.256 357.34 272.006 357.38 266.757C357.406 262.72 357.415 258.681 357.418 254.643C357.423 252.709 357.435 250.773 357.453 248.838C357.478 246.129 357.477 243.42 357.47 240.71C357.483 239.914 357.496 239.117 357.509 238.296C357.46 233.087 356.452 230.126 353 225.998C349.43 223.618 346.515 223.53 342.375 223.186C318.982 220.763 301.188 211.033 285.75 193.373C273.521 177.22 269.734 158.59 269.438 138.748C269.411 137.582 269.384 136.414 269.356 135.212C269.399 125.992 269.399 125.99 272.41 122.264C277.951 117.418 285.001 118.679 292 118.998C311.393 120.655 329.445 126.789 344 139.998L346.555 142.272C358.792 153.765 366.913 169.272 369 185.998C369.078 191.303 368.814 196.603 368.483 201.897C368.31 207.67 368.468 211.124 372.403 215.545C373.34 216.428 373.341 216.429 374.296 217.33C379.722 222.646 380.096 230.776 380.169 237.961C380.172 238.709 380.174 239.459 380.177 240.229C380.184 241.033 380.19 241.837 380.197 242.665C380.216 245.315 380.229 247.966 380.239 250.616C380.243 251.527 380.246 252.441 380.25 253.38C380.271 258.216 380.286 263.053 380.295 267.888C380.306 272.841 380.34 277.795 380.38 282.747C380.406 286.591 380.415 290.435 380.418 294.279C380.423 296.102 380.435 297.926 380.453 299.748C380.644 319.554 377.542 337.939 363.285 352.815C350.328 365.196 335.387 369.322 317.75 369.686L314.301 369.789C311.534 369.871 308.768 369.94 306 369.998C309.658 384.207 314.364 398.223 323.969 409.616C325 410.998 325 411 325 412.998C351.134 406.381 371.597 396.821 386.143 373.024C397.093 354.42 399.441 334.952 399.531 313.83C399.549 311.857 399.57 309.883 399.591 307.911C399.653 301.498 399.685 295.083 399.715 288.67C399.727 286.45 399.74 284.228 399.752 282.007C399.809 271.581 399.852 261.153 399.877 250.727C399.907 238.732 399.986 226.737 400.107 214.742C400.197 205.435 400.241 196.128 400.251 186.822C400.258 181.277 400.285 175.732 400.361 170.188C400.431 164.977 400.443 159.767 400.412 154.556C400.411 152.652 400.43 150.747 400.471 148.844C400.799 136.757 400.799 136.755 394.847 126.695C393.295 125.246 391.704 123.893 390.051 122.562C377 111.601 369.493 92.4964 367.773 75.7895C366.278 54.1554 373.669 35.1675 387.544 18.6411ZM214 368.998C217.024 402.259 229.229 434.129 248.728 461.254L250 462.998C256.492 471.902 263.5 479.988 271.493 487.574C272.006 488.058 272.503 488.529 273 488.998C298.366 513.279 327.737 530.873 362.093 539.299C363.081 539.537 364.041 539.768 365 539.998C379.588 543.702 393.891 544.352 408.876 544.426C410.39 544.431 410.391 544.431 411.875 544.436C428.513 544.546 444.195 543.295 460.337 539.009L462.813 538.311C479.853 533.543 495.779 527.349 510.971 518.229C511.661 517.811 512.331 517.404 513 516.998C522.36 511.386 531.051 505.145 539.499 498.234L541 496.998C544.924 493.777 548.631 490.548 551.938 486.686C553.618 484.645 555.317 482.648 557.09 480.686C585.277 449.849 604.594 411.015 608 368.998H584C579.69 388.775 575.362 407.994 566.011 426.069C565.501 427.043 565.5 427.044 565 427.998C559.479 438.653 552.87 448.406 545.607 457.942C518.174 493.062 474.848 514.682 431.124 520.281C386.524 525.143 340.228 512.877 304.762 485.202L302 482.998C289.538 473.447 279.625 462.149 270.234 449.647C269.815 449.087 269.407 448.542 269 447.998C252.609 426.379 244.636 400.451 239.102 374.307L238 368.998H214ZM260 368.999C265.58 401.892 279.047 431.988 303.285 455.445L306 457.999L308.496 460.367C338.726 488.322 378.351 501.693 419.331 500.157C453.621 498.143 493.183 484.099 517 457.999V455.999H519V453.999H521C521.948 451.887 521.948 451.885 523.75 450.039C545.148 427.081 556.788 399.724 562 368.999H538C535.507 380.548 532.915 391.997 527.84 402.714C512.404 433.745 487.172 457.508 454.319 469.205C453.531 469.475 452.765 469.737 452 469.999C439.06 474.446 426.391 475.408 412.811 475.439C411.94 475.438 411.095 475.438 410.25 475.437C401.457 475.44 392.678 475.616 384.077 473.555C383.372 473.366 382.685 473.183 382 472.999C364.765 468.887 348.773 461.723 334.301 451.468C309.72 433.401 289.61 404.127 284.5 373.687L284 368.999H260ZM410 374.999C397.425 401.588 374.909 419.466 347.895 429.898L345 430.999L347 433.999C370.125 449.995 393.548 455.256 421.368 454.313C441.009 453.455 464.343 445.674 478 430.999C450.915 422.635 428.971 404.766 415 380.187C414.054 378.428 413.07 376.686 412 374.999H410ZM514.028 257.551C510.662 257.369 508.402 257.743 505.563 259.563C503.434 262.884 502.932 265.047 503 269C504.937 272.437 504.938 272.438 508 275C510.908 275.577 512.988 275.346 516 275C518 274.001 518.001 274 519.625 271.813C521.261 268.467 521.613 266.678 521 263C519.004 260.131 517.528 258.348 514.028 257.551ZM292 141.999C291.939 145.002 291.928 147.997 292 150.999C293.26 163.387 299.404 177.988 308.891 186.335L311 187.999C321.535 196.729 333.365 200.725 347 200.999L347.035 198.367L347.063 194.874C347.203 181.092 342.238 169.242 333 158.999C321.554 148.135 307.923 142.06 292 141.999ZM541 116.999C523.77 116.771 508.236 123.955 496.395 136.269C486.102 148.006 482.086 160.477 483 175.999C489.439 175.73 495.887 175.545 502.125 173.812C515.064 169.393 525.986 162.916 532.656 150.667L534 147.999C539.335 137.996 540.221 128.119 541 116.999ZM410 26.9995C402.54 35.5799 395.79 43.894 391.625 54.6245C387.893 66.6614 389.166 79.5867 394.564 90.8862C394.903 91.562 395.233 92.2185 395.563 92.8745C398.707 99.147 402.231 104.221 407.02 109.374C409 110.999 409.001 110.999 412 110.999C414.051 109.164 414.051 109.163 416.313 106.624C428.53 92.4835 432.13 78.3496 431 59.9995C428.088 47.0367 420.678 34.9511 410 26.9995Z" fill="#C0EA88"/>
</svg>
